<svg width="180" height="180" viewBox="0 0 180 180" fill="none" xmlns="http://www.w3.org/2000/svg">
<rect x="1.5" y="1.5" width="177" height="177" rx="88.5" fill="#DCFFE4" stroke="#03A87C" stroke-width="3"/>
<path d="M122.241 57.7734C119.804 55.3353 118.377 52.0671 118.245 48.6223C118.114 45.1774 119.288 41.81 121.532 39.1933C121.718 38.9757 121.814 38.6959 121.802 38.4101C121.79 38.1243 121.671 37.8536 121.468 37.6523L108.539 24.7089C108.325 24.4953 108.035 24.3753 107.733 24.3753C107.431 24.3753 107.141 24.4953 106.928 24.7089L86.3202 45.3163C85.5599 46.0765 84.9871 47.0033 84.6474 48.0234C84.3089 49.0458 83.7368 49.9752 82.9766 50.738C82.2163 51.5008 81.2888 52.076 80.2675 52.4179C79.2468 52.758 78.3191 53.3307 77.5575 54.0907L24.7089 106.928C24.4953 107.141 24.3753 107.431 24.3753 107.733C24.3753 108.035 24.4953 108.325 24.7089 108.539L37.6376 121.468C37.839 121.671 38.1097 121.79 38.3955 121.802C38.6813 121.814 38.961 121.718 39.1786 121.532C41.7948 119.285 45.163 118.11 48.609 118.24C52.055 118.371 55.3245 119.798 57.763 122.237C60.2014 124.675 61.6289 127.945 61.7595 131.391C61.8902 134.837 60.7145 138.205 58.4677 140.821C58.2821 141.039 58.1856 141.319 58.1975 141.604C58.2095 141.89 58.329 142.161 58.5322 142.362L71.4609 155.291C71.6746 155.505 71.9644 155.625 72.2665 155.625C72.5687 155.625 72.8585 155.505 73.0722 155.291L125.924 102.442C126.684 101.681 127.256 100.753 127.597 99.7324C127.935 98.71 128.507 97.7805 129.267 97.0177C130.028 96.2549 130.955 95.6797 131.976 95.3378C132.997 94.9981 133.923 94.4253 134.684 93.665L155.291 73.0575C155.505 72.8438 155.625 72.554 155.625 72.2519C155.625 71.9497 155.505 71.6599 155.291 71.4462L142.362 58.5175C142.161 58.3144 141.89 58.1948 141.604 58.1829C141.319 58.1709 141.039 58.2674 140.821 58.4531C138.208 60.7012 134.843 61.8802 131.398 61.7541C127.953 61.6281 124.683 60.2064 122.241 57.7734Z" stroke="#03A87C" stroke-width="10" stroke-miterlimit="10"/>
<path d="M128.692 96.4482L123.855 91.6113M88.3887 56.1445L83.5518 51.3076L88.3887 56.1445ZM101.285 69.041L98.0596 65.8184L101.285 69.041ZM114.182 81.9404L110.959 78.7148L114.182 81.9404Z" stroke="#03A87C" stroke-width="10" stroke-miterlimit="10" stroke-linecap="round"/>
</svg>
