<svg width="25" height="25" viewBox="0 0 25 25" fill="none" xmlns="http://www.w3.org/2000/svg">
<mask id="mask0" mask-type="alpha" maskUnits="userSpaceOnUse" x="0" y="0" width="25" height="25">
<path fill-rule="evenodd" clip-rule="evenodd" d="M0 0H25V25H0V0Z" fill="white"/>
</mask>
<g mask="url(#mask0)">
<path fill-rule="evenodd" clip-rule="evenodd" d="M24.3295 10.8738C24.3289 10.8732 24.3284 10.8727 24.3278 10.8721L14.1275 0.674414C13.6927 0.239551 13.1147 0 12.4998 0C11.8849 0 11.3069 0.239355 10.8719 0.674268L0.676952 10.8667C0.673533 10.8702 0.670115 10.8738 0.666696 10.8772C-0.226177 11.775 -0.224614 13.2316 0.671042 14.1271C1.08026 14.5365 1.62076 14.7735 2.19863 14.7983C2.22207 14.8006 2.24575 14.8018 2.26959 14.8018H2.67612V22.3066C2.67612 23.7917 3.88469 25 5.37047 25H9.36114C9.76558 25 10.0937 24.6721 10.0937 24.2676V18.3838C10.0937 17.7061 10.6451 17.1549 11.3229 17.1549H13.6767C14.3545 17.1549 14.9059 17.7061 14.9059 18.3838V24.2676C14.9059 24.6721 15.2338 25 15.6385 25H19.6291C21.1149 25 22.3235 23.7917 22.3235 22.3066V14.8018H22.7005C23.3151 14.8018 23.8932 14.5624 24.3284 14.1275C25.225 13.2305 25.2254 11.7714 24.3295 10.8738Z" fill="#03A87C"/>
</g>
</svg>
